<?xml version="1.0" encoding="UTF-8" standalone="no"?>
<svg
   width="1200"
   height="300"
   viewBox="0 0 1200 300"
   version="1.1"
   xml:space="preserve"
   style="clip-rule:evenodd;fill-rule:evenodd;stroke-linejoin:round;stroke-miterlimit:2"
   id="svg866"
   sodipodi:docname="banner-transparent.svg"
   inkscape:version="1.1 (c4e8f9e, 2021-05-24)"
   xmlns:inkscape="http://www.inkscape.org/namespaces/inkscape"
   xmlns:sodipodi="http://sodipodi.sourceforge.net/DTD/sodipodi-0.dtd"
   xmlns="http://www.w3.org/2000/svg"
   xmlns:svg="http://www.w3.org/2000/svg"><defs
     id="defs870" /><sodipodi:namedview
     id="namedview868"
     pagecolor="#ffffff"
     bordercolor="#111111"
     borderopacity="1"
     inkscape:pageshadow="0"
     inkscape:pageopacity="0"
     inkscape:pagecheckerboard="1"
     showgrid="false"
     inkscape:zoom="1"
     inkscape:cx="555.5"
     inkscape:cy="222"
     inkscape:current-layer="svg866" /><g
     aria-label="Aegis"
     transform="matrix(2.8841118,0,0,2.7777977,-1296.903,-952.92173)"
     id="text848"
     style="font-weight:600;font-size:43.5288px;font-family:Jost-SemiBold, Jost;clip-rule:evenodd;fill:#1d6338;fill-rule:nonzero;stroke-width:0.346728;stroke-linejoin:round;stroke-miterlimit:2"><path
       d="m 638.75259,401.96784 h 16.10566 l -0.73999,-4.91876 h -14.62568 z m 7.96577,-13.66805 4.57052,10.5775 -0.087,1.56704 3.91759,8.44459 h 7.05166 l -15.45272,-32.25485 -15.45272,32.25485 h 7.00813 l 4.00465,-8.70576 -0.13058,-1.39293 z"
       style="font-weight:600;font-size:43.5288px;font-family:Jost-SemiBold, Jost;fill:#1d6338;fill-rule:nonzero;stroke-width:0.346728"
       id="path1093" /><path
       d="m 674.39996,409.3242 q 3.61289,0 6.18109,-1.39292 2.61172,-1.43645 4.17876,-4.26582 l -4.91875,-1.52351 q -0.87058,1.43645 -2.21997,2.17644 -1.30587,0.69646 -3.1776,0.69646 -1.6541,0 -2.82938,-0.73999 -1.17527,-0.73999 -1.78468,-2.13291 -0.56587,-1.39292 -0.56587,-3.39524 0.0435,-2.08939 0.6094,-3.48231 0.6094,-1.43645 1.69762,-2.13291 1.13175,-0.73999 2.78585,-0.73999 1.34939,0 2.35055,0.6094 1.00117,0.60941 1.52351,1.6541 0.56588,1.04469 0.56588,2.52467 0,0.3047 -0.17412,0.78352 -0.13059,0.43528 -0.3047,0.69646 l 1.52351,-2.00233 h -13.01511 v 3.48231 h 17.93386 q 0.0435,-0.26118 0.0435,-0.69646 0.0435,-0.43529 0.0435,-0.82705 0,-3.22113 -1.21881,-5.48463 -1.2188,-2.30703 -3.56936,-3.4823 -2.30703,-1.21881 -5.61521,-1.21881 -3.30819,0 -5.74581,1.30586 -2.43761,1.26234 -3.787,3.61289 -1.30587,2.30703 -1.30587,5.52816 0,3.1776 1.30587,5.52816 1.34939,2.30703 3.787,3.61289 2.43762,1.30586 5.70228,1.30586 z"
       style="font-weight:600;font-size:43.5288px;font-family:Jost-SemiBold, Jost;fill:#1d6338;fill-rule:nonzero;stroke-width:0.346728"
       id="path1095" /><path
       d="m 688.14146,410.28184 q 0.17411,2.61173 1.39292,4.61405 1.26233,2.04585 3.61289,3.13407 2.35055,1.13175 5.83286,1.13175 2.8729,0 5.31051,-1.13175 2.43762,-1.08822 3.87407,-3.4823 1.47997,-2.39408 1.47997,-6.09403 v -19.58796 h -5.4411 v 19.58796 q 0,2.04585 -0.78351,3.39524 -0.73999,1.3494 -2.00233,2.00233 -1.2188,0.65293 -2.61173,0.65293 -1.5235,0 -2.65525,-0.52234 -1.13175,-0.52235 -1.78468,-1.47998 -0.65294,-0.91411 -0.69646,-2.21997 z m -0.39176,-11.57866 q 0,3.30819 1.34939,5.61521 1.34939,2.2635 3.56936,3.43878 2.21997,1.17527 4.70111,1.17527 2.52467,0 4.43994,-1.17527 1.9588,-1.21881 3.04702,-3.52584 1.13175,-2.30702 1.13175,-5.52815 0,-3.26466 -1.13175,-5.52816 -1.08822,-2.30703 -3.04702,-3.52583 -1.91527,-1.21881 -4.43994,-1.21881 -2.48114,0 -4.70111,1.17528 -2.21997,1.17527 -3.56936,3.4823 -1.34939,2.2635 -1.34939,5.61522 z m 5.83286,0 q 0,-1.82821 0.73999,-3.04702 0.73999,-1.26233 2.00232,-1.91527 1.26234,-0.65293 2.69879,-0.65293 0.95763,0 1.87174,0.39176 0.9141,0.34823 1.65409,1.04469 0.78352,0.69646 1.21881,1.74115 0.43528,1.04469 0.43528,2.43762 0,1.82821 -0.78351,3.09054 -0.73999,1.21881 -1.9588,1.87174 -1.17528,0.6094 -2.43761,0.6094 -1.43645,0 -2.69879,-0.65293 -1.26233,-0.65293 -2.00232,-1.87174 -0.73999,-1.26233 -0.73999,-3.04701 z"
       style="font-weight:600;font-size:43.5288px;font-family:Jost-SemiBold, Jost;fill:#1d6338;fill-rule:nonzero;stroke-width:0.346728"
       id="path1097" /><path
       d="m 714.85318,381.11754 q 0,1.34939 1.00116,2.2635 1.00116,0.9141 2.39408,0.9141 1.39293,0 2.35056,-0.9141 1.00116,-0.91411 1.00116,-2.2635 0,-1.39292 -1.00116,-2.2635 -0.95763,-0.9141 -2.35056,-0.9141 -1.39292,0 -2.39408,0.9141 -1.00116,0.87058 -1.00116,2.2635 z m 0.6094,7.74813 v 20.02325 h 5.48463 v -20.02325 z"
       style="font-weight:600;font-size:43.5288px;font-family:Jost-SemiBold, Jost;fill:#1d6338;fill-rule:nonzero;stroke-width:0.346728"
       id="path1099" /><path
       d="m 727.9329,401.96784 -2.74231,3.52583 q 1.13175,1.08822 2.52467,2.04585 1.43645,0.91411 3.1776,1.47998 1.78468,0.56588 3.91759,0.56588 3.43878,0 5.39757,-1.6541 1.9588,-1.69762 1.9588,-4.70111 0,-1.82821 -0.82705,-2.95996 -0.82704,-1.13175 -2.21997,-1.87174 -1.34939,-0.78351 -2.95995,-1.39292 -1.30587,-0.56587 -2.35056,-0.95763 -1.00116,-0.39176 -1.56704,-0.87058 -0.52234,-0.52234 -0.52234,-1.17527 0,-0.73999 0.52234,-1.08822 0.56588,-0.39176 1.52351,-0.39176 1.43645,0 2.91643,0.73999 1.52351,0.73999 2.61173,1.91526 l 2.48114,-3.4823 q -0.95763,-0.95763 -2.21997,-1.65409 -1.26233,-0.73999 -2.74231,-1.17528 -1.47998,-0.43529 -3.1776,-0.43529 -2.00233,0 -3.65642,0.65293 -1.61057,0.6094 -2.5682,1.87174 -0.95764,1.21881 -0.95764,3.00349 0,1.87174 0.82705,3.09054 0.87058,1.17528 2.17644,1.91527 1.30586,0.69646 2.69879,1.21881 1.47998,0.47881 2.43761,0.9141 0.95763,0.43529 1.43645,1.00116 0.52235,0.52235 0.52235,1.30587 0,0.87057 -0.60941,1.39292 -0.6094,0.47882 -1.74115,0.47882 -0.87058,0 -1.87174,-0.34823 -0.95763,-0.34824 -2.04585,-1.0447 -1.08822,-0.73999 -2.35056,-1.91526 z"
       style="font-weight:600;font-size:43.5288px;font-family:Jost-SemiBold, Jost;fill:#1d6338;fill-rule:nonzero;stroke-width:0.346728"
       id="path1101" /></g><path
     d="m 470.01745,204.38366 c -10.29152,8.381 -23.00875,13.89189 -36.92609,15.30996 v -30.26323 c 5.68636,-1.03312 10.95668,-3.27204 15.53068,-6.44212 z m -88.17149,0 21.39539,-21.39539 c 4.57684,3.17011 9.84434,5.409 15.53071,6.44212 v 30.26323 c -13.92016,-1.4209 -26.63458,-6.93179 -36.9261,-15.30996 z m -25.4345,-47.05067 h 30.26325 c 1.0331,5.68922 3.27202,10.95672 6.44493,15.53072 l -21.39541,21.39541 c -8.38098,-10.29152 -13.89186,-23.00878 -15.31277,-36.92613 z m 139.04049,0 c -1.42091,13.92021 -6.93179,26.63742 -15.31276,36.92613 l -21.39542,-21.39541 c 3.17292,-4.57402 5.41183,-9.84434 6.44494,-15.53072 z M 418.77206,80.672933 c 4.758,-0.486839 9.55844,-0.489667 14.3193,-0.0029 v -0.01424 c 6.30906,0.642515 12.37189,2.12853 18.06962,4.336288 6.26663,2.420011 12.26151,5.782621 17.76678,10.087715 l -0.0119,0.0086 c 14.59947,11.412364 24.55421,28.497004 26.53553,47.928114 h -30.26325 c -2.48229,-13.67396 -11.9445,-24.93066 -24.5542,-29.93774 -9.81886,-3.88342 -20.8548,-3.71073 -30.5406,0.46986 -12.04077,5.21933 -21.01049,16.2072 -23.4192,29.46788 H 356.4109 c 1.88227,-18.44609 10.94823,-34.77785 24.35326,-46.150614 l -0.0119,-0.01128 c 5.24482,-4.455165 11.00199,-8.010218 17.06767,-10.670845 6.52701,-2.872883 13.56919,-4.777783 20.951,-5.527881 z"
     style="clip-rule:evenodd;fill:#1d6338;fill-rule:evenodd;stroke-width:1;stroke-linejoin:round;stroke-miterlimit:2"
     id="path852" /></svg>
