<svg xmlns="http://www.w3.org/2000/svg" width="1200" height="300" fill-rule="evenodd" stroke-linejoin="round" stroke-miterlimit="2" fill="#1d6338" xmlns:v="https://vecta.io/nano"><path d="M545.323 163.665h46.45l-2.134-13.663h-42.182zm22.974-37.967l13.182 29.382-.251 4.353 11.299 23.457h20.338l-44.567-89.598-44.567 89.598h20.212l11.55-24.183-.377-3.869zm79.837 58.401q10.42 0 17.827-3.869 7.532-3.99 12.052-11.85l-14.186-4.232q-2.511 3.99-6.403 6.046-3.766 1.935-9.165 1.935-4.771 0-8.16-2.056-3.39-2.056-5.147-5.925-1.632-3.869-1.632-9.431.125-5.804 1.758-9.673 1.758-3.99 4.896-5.925 3.264-2.056 8.035-2.056 3.892 0 6.779 1.693 2.887 1.693 4.394 4.595 1.632 2.902 1.632 7.013 0 .846-.502 2.176-.377 1.209-.879 1.935l4.394-5.562H626.29v9.673h51.723q.125-.726.125-1.935.125-1.209.125-2.297 0-8.948-3.515-15.235-3.515-6.408-10.294-9.673-6.654-3.386-16.195-3.386-9.541 0-16.571 3.627-7.03 3.507-10.922 10.036Q617 146.131 617 155.079q0 8.827 3.766 15.356 3.892 6.408 10.922 10.036 7.03 3.627 16.446 3.627zm39.632 2.66q.502 7.255 4.017 12.817 3.641 5.683 10.42 8.706 6.779 3.144 16.823 3.144 8.286 0 15.316-3.144 7.03-3.023 11.173-9.673 4.268-6.65 4.268-16.928V127.27H734.09v54.411q0 5.683-2.26 9.431-2.134 3.748-5.775 5.562-3.515 1.814-7.532 1.814-4.394 0-7.658-1.451-3.264-1.451-5.147-4.111-1.883-2.539-2.009-6.167zm-1.13-32.163q0 9.189 3.892 15.598 3.892 6.288 10.294 9.552 6.403 3.265 13.558 3.265 7.281 0 12.805-3.265 5.649-3.386 8.788-9.794 3.264-6.408 3.264-15.356 0-9.069-3.264-15.356-3.139-6.408-8.788-9.794-5.524-3.386-12.805-3.386-7.156 0-13.558 3.265-6.403 3.265-10.294 9.673-3.892 6.288-3.892 15.598zm16.823 0q0-5.078 2.134-8.464 2.134-3.507 5.775-5.32 3.641-1.814 7.784-1.814 2.762 0 5.398 1.088 2.636.967 4.771 2.902 2.26 1.935 3.515 4.837 1.255 2.902 1.255 6.771 0 5.078-2.26 8.585-2.134 3.386-5.649 5.199-3.39 1.693-7.03 1.693-4.143 0-7.784-1.814-3.641-1.814-5.775-5.199-2.134-3.507-2.134-8.464zm61.346-48.849q0 3.748 2.887 6.288 2.887 2.539 6.905 2.539 4.017 0 6.779-2.539 2.887-2.539 2.887-6.288 0-3.869-2.887-6.288-2.762-2.539-6.779-2.539-4.017 0-6.905 2.539-2.887 2.418-2.887 6.288zm1.758 21.523v55.621h15.818V127.27zm35.965 36.395l-7.909 9.794q3.264 3.023 7.281 5.683 4.143 2.539 9.165 4.111 5.147 1.572 11.299 1.572 9.918 0 15.567-4.595 5.649-4.716 5.649-13.059 0-5.078-2.385-8.222-2.385-3.144-6.403-5.199-3.892-2.176-8.537-3.869-3.766-1.572-6.779-2.66-2.887-1.088-4.52-2.418-1.506-1.451-1.506-3.265 0-2.056 1.506-3.023 1.632-1.088 4.394-1.088 4.143 0 8.411 2.056 4.394 2.056 7.532 5.32l7.156-9.673q-2.762-2.66-6.403-4.595-3.641-2.056-7.909-3.265-4.268-1.209-9.165-1.209-5.775 0-10.545 1.814-4.645 1.693-7.407 5.199-2.762 3.386-2.762 8.343 0 5.199 2.385 8.585 2.511 3.265 6.277 5.32 3.766 1.935 7.784 3.386 4.268 1.33 7.03 2.539 2.762 1.209 4.143 2.781 1.507 1.451 1.507 3.627 0 2.418-1.758 3.869-1.758 1.33-5.022 1.33-2.511 0-5.398-.967-2.762-.967-5.9-2.902-3.139-2.056-6.779-5.32z" fill-rule="nonzero"/><path d="M470.017 204.384c-10.292 8.381-23.009 13.892-36.926 15.31V189.43a39.71 39.71 0 0 0 15.531-6.442zm-88.171 0l21.395-21.395c4.577 3.17 9.844 5.409 15.531 6.442v30.263c-13.92-1.421-26.635-6.932-36.926-15.31zm-25.435-47.051h30.263c1.033 5.689 3.272 10.957 6.445 15.531l-21.395 21.395c-8.381-10.292-13.892-23.009-15.313-36.926zm139.04 0c-1.421 13.92-6.932 26.637-15.313 36.926l-21.395-21.395a39.67 39.67 0 0 0 6.445-15.531zm-76.68-76.66c4.758-.487 9.558-.49 14.319-.003v-.014a69.45 69.45 0 0 1 18.07 4.336c6.267 2.42 12.262 5.783 17.767 10.088l-.012.009c14.599 11.412 24.554 28.497 26.536 47.928h-30.263c-2.482-13.674-11.945-24.931-24.554-29.938-9.819-3.883-20.855-3.711-30.541.47-12.041 5.219-21.01 16.207-23.419 29.468h-30.263c1.882-18.446 10.948-34.778 24.353-46.151l-.012-.011a69.38 69.38 0 0 1 17.068-10.671c6.527-2.873 13.569-4.778 20.951-5.528z"/></svg>