<svg xmlns="http://www.w3.org/2000/svg" width="180" height="120" fill-rule="evenodd" stroke-linejoin="round" stroke-miterlimit="2" xmlns:v="https://vecta.io/nano"><path d="M0 0h180v120H0z" fill="#1d6338"/><path d="M121.15 98.302c-7.272 5.922-16.258 9.818-26.092 10.82V87.738a28.06 28.06 0 0 0 10.974-4.552zm-62.302 0l15.118-15.116a28.07 28.07 0 0 0 10.974 4.552v21.384c-9.836-1.004-18.82-4.898-26.092-10.82zM40.876 65.058H62.26a28.02 28.02 0 0 0 4.554 10.974L51.696 91.15c-5.922-7.272-9.816-16.258-10.82-26.092zm98.246 0c-1.004 9.836-4.898 18.82-10.82 26.092l-15.118-15.118a28.03 28.03 0 0 0 4.554-10.974zm-44.064-54.18c23.22 2.368 41.698 20.85 44.064 44.064h-21.384c-2.088-11.508-11.172-20.592-22.68-22.68zm-10.118 0v21.384c-11.506 2.088-20.59 11.17-22.68 22.68H40.876c2.37-23.22 20.85-41.7 44.064-44.064z" fill="#fefffe"/><path d="M121.15 98.55c-7.272 5.922-16.258 9.816-26.092 10.818V87.984a28.06 28.06 0 0 0 10.974-4.552zm-62.302 0l15.118-15.118a28.07 28.07 0 0 0 10.974 4.552v21.384c-9.836-1.002-18.82-4.898-26.092-10.818zM40.876 65.304H62.26a28.02 28.02 0 0 0 4.554 10.974L51.696 91.396c-5.922-7.27-9.816-16.256-10.82-26.092zm98.246 0c-1.004 9.836-4.898 18.822-10.82 26.092l-15.118-15.118c2.242-3.232 3.824-6.956 4.554-10.974zM84.94 11.136a49.73 49.73 0 0 1 10.118-.002v-.01a49.04 49.04 0 0 1 12.766 3.064c4.43 1.71 8.666 4.086 12.556 7.128l-.009.008c10.316 8.062 17.35 20.136 18.75 33.864h-21.384c-1.754-9.662-8.44-17.616-17.35-21.154-6.938-2.744-14.736-2.622-21.58.334-8.508 3.686-14.846 11.45-16.548 20.82H40.876c1.33-13.034 7.736-24.574 17.208-32.61l-.008-.008c3.706-3.146 7.774-5.66 12.06-7.538a49 49 0 0 1 14.804-3.908z" fill="#fff"/></svg>