<?xml version="1.0" encoding="UTF-8" standalone="no"?>
<svg
   width="180"
   height="120.00001"
   viewBox="0 0 180 120.00001"
   version="1.1"
   xml:space="preserve"
   style="clip-rule:evenodd;fill-rule:evenodd;stroke-linejoin:round;stroke-miterlimit:2"
   id="svg866"
   sodipodi:docname="flag-green.svg"
   inkscape:version="1.1 (c4e8f9e, 2021-05-24)"
   xmlns:inkscape="http://www.inkscape.org/namespaces/inkscape"
   xmlns:sodipodi="http://sodipodi.sourceforge.net/DTD/sodipodi-0.dtd"
   xmlns="http://www.w3.org/2000/svg"
   xmlns:svg="http://www.w3.org/2000/svg"><defs
     id="defs870" /><sodipodi:namedview
     id="namedview868"
     pagecolor="#ffffff"
     bordercolor="#111111"
     borderopacity="1"
     inkscape:pageshadow="0"
     inkscape:pageopacity="0"
     inkscape:pagecheckerboard="1"
     showgrid="false"
     inkscape:zoom="1"
     inkscape:cx="72.5"
     inkscape:cy="87"
     inkscape:current-layer="svg866" /><rect
     x="0"
     y="0"
     width="180"
     height="120.00001"
     style="fill:#1d6338;stroke-width:0.999998"
     id="rect822" /><g
     id="g828"
     transform="matrix(2.0000002,0,0,2.0000002,-510.50803,-961.81409)"
     style="stroke-width:0.500001"><path
       d="m 315.829,530.058 c -3.636,2.961 -8.129,4.909 -13.046,5.41 v -10.692 c 2.009,-0.365 3.871,-1.156 5.487,-2.276 z m -31.151,0 7.559,-7.558 c 1.617,1.12 3.478,1.911 5.487,2.276 v 10.692 c -4.918,-0.502 -9.41,-2.449 -13.046,-5.41 z m -8.986,-16.622 h 10.692 c 0.365,2.01 1.156,3.871 2.277,5.487 l -7.559,7.559 c -2.961,-3.636 -4.908,-8.129 -5.41,-13.046 z m 49.123,0 c -0.502,4.918 -2.449,9.41 -5.41,13.046 l -7.559,-7.559 c 1.121,-1.616 1.912,-3.478 2.277,-5.487 z m -22.032,-27.09 c 11.61,1.184 20.849,10.425 22.032,22.032 h -10.692 c -1.044,-5.754 -5.586,-10.296 -11.34,-11.34 z m -5.059,0 v 10.692 c -5.753,1.044 -10.295,5.585 -11.34,11.34 h -10.692 c 1.185,-11.61 10.425,-20.85 22.032,-22.032 z"
       style="fill:#fefffe;stroke-width:0.500001"
       id="path826" /></g><path
     d="m 121.15001,98.549977 c -7.272,5.922003 -16.258,9.816003 -26.091996,10.818003 V 87.983976 c 4.017998,-0.730005 7.741996,-2.312003 10.973996,-4.552005 z m -62.302004,0 15.118004,-15.118006 c 3.234,2.240002 6.956003,3.822 10.973993,4.552005 v 21.384004 c -9.835995,-1.002 -18.819995,-4.898 -26.091997,-10.818003 z M 40.876005,65.303978 H 62.26001 c 0.729996,4.02 2.311998,7.741998 4.554,10.974005 L 51.696006,91.395981 c -5.922001,-7.269998 -9.816,-16.256003 -10.820001,-26.092003 z m 98.246015,0 c -1.00401,9.836 -4.89801,18.822005 -10.82001,26.092003 L 113.18402,76.277983 c 2.24199,-3.232007 3.82398,-6.956003 4.554,-10.974005 z M 84.940003,11.135975 c 3.36201,-0.344 6.754006,-0.346 10.118011,-0.002 v -0.01 c 4.458,0.454 8.741996,1.504 12.765996,3.064 4.43,1.71 8.66601,4.086 12.55599,7.128001 l -0.009,0.0081 c 10.316,8.062001 17.34999,20.136001 18.75,33.864001 h -21.38359 c -1.75397,-9.661965 -8.43998,-17.615965 -17.34998,-21.153966 -6.937994,-2.743999 -14.735999,-2.622 -21.579997,0.334001 -8.508019,3.685984 -14.846022,11.449984 -16.548019,20.819984 H 40.876005 c 1.330002,-13.034001 7.736,-24.574001 17.208002,-32.610001 l -0.0081,-0.0081 c 3.705999,-3.146023 7.773999,-5.660024 12.060003,-7.538024 4.611996,-2.032 9.587993,-3.376 14.804003,-3.907999 z"
     style="fill:#ffffff;stroke-width:0.999998"
     id="path864" /></svg>
