<svg xmlns="http://www.w3.org/2000/svg" width="180" height="120" fill-rule="evenodd" stroke-linejoin="round" stroke-miterlimit="2" xmlns:v="https://vecta.io/nano"><path d="M0 0h180v120H0z" fill="#f4f5f5"/><g fill="#1d6338"><path d="M121.15 98.302c-7.27 5.922-16.256 9.818-26.092 10.82V87.738c4.02-.73 7.744-2.312 10.976-4.552zm-62.3 0l15.118-15.116a28.06 28.06 0 0 0 10.974 4.552v21.384c-9.836-1.004-18.82-4.898-26.092-10.82zM40.878 65.058h21.384c.73 4.02 2.312 7.742 4.552 10.974L51.698 91.15c-5.922-7.272-9.818-16.258-10.82-26.092zm98.244 0c-1.002 9.836-4.898 18.82-10.818 26.092l-15.118-15.118a28.03 28.03 0 0 0 4.552-10.974zm-44.064-54.18c23.22 2.368 41.7 20.85 44.064 44.064h-21.384a28.24 28.24 0 0 0-22.68-22.68zm-10.116 0v21.384c-11.506 2.088-20.59 11.17-22.68 22.68H40.878c2.37-23.22 20.85-41.7 44.064-44.064z"/><path d="M121.15 98.302c-7.27 5.922-16.256 9.818-26.092 10.82V87.738c4.02-.73 7.744-2.312 10.976-4.552zm-62.3 0l15.118-15.116a28.06 28.06 0 0 0 10.974 4.552v21.384c-9.836-1.004-18.82-4.898-26.092-10.82zM40.878 65.058h21.384c.73 4.02 2.312 7.742 4.552 10.974L51.698 91.15c-5.922-7.272-9.818-16.258-10.82-26.092zm98.244 0c-1.002 9.836-4.898 18.82-10.818 26.092l-15.118-15.118a28.03 28.03 0 0 0 4.552-10.974zM84.942 10.89a49.71 49.71 0 0 1 10.116-.002v-.01c4.46.454 8.742 1.502 12.768 3.064a49.02 49.02 0 0 1 12.556 7.126l-.008.008c10.316 8.062 17.35 20.136 18.748 33.866h-21.384c-1.752-9.664-8.438-17.616-17.35-21.156-6.938-2.742-14.734-2.62-21.58.334-8.506 3.688-14.844 11.45-16.546 20.822H40.878c1.33-13.034 7.736-24.574 17.208-32.61l-.008-.008c3.706-3.148 7.774-5.662 12.06-7.54a48.98 48.98 0 0 1 14.804-3.906z"/></g></svg>