<?xml version="1.0" encoding="UTF-8" standalone="no"?>
<svg
   width="180"
   height="120"
   viewBox="0 0 180 120"
   version="1.1"
   xml:space="preserve"
   style="clip-rule:evenodd;fill-rule:evenodd;stroke-linejoin:round;stroke-miterlimit:2"
   id="svg866"
   sodipodi:docname="flag-gray.svg"
   inkscape:version="1.1 (c4e8f9e, 2021-05-24)"
   xmlns:inkscape="http://www.inkscape.org/namespaces/inkscape"
   xmlns:sodipodi="http://sodipodi.sourceforge.net/DTD/sodipodi-0.dtd"
   xmlns="http://www.w3.org/2000/svg"
   xmlns:svg="http://www.w3.org/2000/svg"><defs
     id="defs870" /><sodipodi:namedview
     id="namedview868"
     pagecolor="#ffffff"
     bordercolor="#111111"
     borderopacity="1"
     inkscape:pageshadow="0"
     inkscape:pageopacity="0"
     inkscape:pagecheckerboard="1"
     showgrid="false"
     inkscape:zoom="1.0039136"
     inkscape:cx="-45.322625"
     inkscape:cy="2.988305"
     inkscape:current-layer="svg866" /><rect
     x="0"
     y="0"
     width="180"
     height="120"
     style="fill:#f4f5f5;stroke-width:1"
     id="rect824" /><g
     id="g858"
     transform="matrix(2,0,0,2,-722.904,-961.81402)"
     style="stroke-width:0.5"><path
       d="m 422.027,530.058 c -3.635,2.961 -8.128,4.909 -13.046,5.41 v -10.692 c 2.01,-0.365 3.872,-1.156 5.488,-2.276 z m -31.15,0 7.559,-7.558 c 1.616,1.12 3.478,1.911 5.487,2.276 v 10.692 c -4.918,-0.502 -9.41,-2.449 -13.046,-5.41 z m -8.986,-16.622 h 10.692 c 0.365,2.01 1.156,3.871 2.276,5.487 l -7.558,7.559 c -2.961,-3.636 -4.909,-8.129 -5.41,-13.046 z m 49.122,0 c -0.501,4.918 -2.449,9.41 -5.409,13.046 l -7.559,-7.559 c 1.12,-1.616 1.912,-3.478 2.276,-5.487 z m -22.032,-27.09 c 11.61,1.184 20.85,10.425 22.032,22.032 h -10.692 c -1.044,-5.754 -5.585,-10.296 -11.34,-11.34 z m -5.058,0 v 10.692 c -5.753,1.044 -10.295,5.585 -11.34,11.34 h -10.692 c 1.185,-11.61 10.425,-20.85 22.032,-22.032 z"
       style="fill:#1d6338;stroke-width:0.5"
       id="path856" /></g><path
     d="m 121.15001,98.301974 c -7.27,5.921996 -16.256,9.817996 -26.092002,10.819996 V 87.737974 c 4.02,-0.73 7.744002,-2.312 10.976002,-4.552 z m -62.300002,0 15.118,-15.116 c 3.232,2.24 6.956,3.822 10.974,4.552 v 21.383996 c -9.836,-1.004 -18.82,-4.898 -26.092,-10.819996 z m -17.972,-33.244 h 21.384 c 0.73,4.02 2.312,7.742 4.552,10.974 l -15.116,15.118 c -5.922,-7.272 -9.818,-16.258 -10.82,-26.092 z m 98.244002,0 c -1.002,9.836 -4.898,18.82 -10.818,26.092 l -15.118,-15.118 c 2.24,-3.232 3.824,-6.956 4.552,-10.974 z m -54.180002,-54.168 c 3.362,-0.344 6.754,-0.346 10.116,-0.002 v -0.01 c 4.46,0.454 8.742002,1.502 12.768002,3.064 4.43,1.71 8.666,4.084 12.556,7.126 l -0.008,0.008 c 10.316,8.062 17.35,20.136 18.748,33.866 h -21.384 c -1.752,-9.664 -8.438,-17.616 -17.35,-21.156 -6.938002,-2.742 -14.734002,-2.62 -21.580002,0.334 -8.506,3.688 -14.844,11.45 -16.546,20.822 h -21.384 c 1.33,-13.034 7.736,-24.574 17.208,-32.61 l -0.008,-0.008 c 3.706,-3.148 7.774,-5.662 12.06,-7.54 4.61,-2.03 9.588,-3.376 14.804,-3.906 z"
     style="fill:#1d6338;stroke-width:1"
     id="path860" /></svg>
