<svg xmlns="http://www.w3.org/2000/svg" width="49.122" height="49.246" fill-rule="evenodd" stroke-linejoin="round" stroke-miterlimit="2" xmlns:v="https://vecta.io/nano"><path d="M40.136 43.837a24.57 24.57 0 0 1-13.046 5.409V38.554c2.01-.365 3.872-1.156 5.488-2.276zm-31.15 0l7.559-7.559a14.03 14.03 0 0 0 5.487 2.276v10.692a24.59 24.59 0 0 1-13.046-5.409zM0 27.214h10.692c.365 2.01 1.156 3.871 2.276 5.487L5.41 40.26C2.449 36.624.501 32.132 0 27.214zm49.122 0c-.501 4.918-2.449 9.411-5.409 13.046l-7.559-7.559c1.12-1.616 1.912-3.478 2.276-5.487zM22.032.13c1.681-.172 3.377-.173 5.058-.001V.124c2.23.227 4.371.752 6.384 1.532 2.215.855 4.333 2.043 6.278 3.564l-.004.004c5.158 4.031 8.675 10.067 9.374 16.932H38.43c-.876-4.831-4.219-8.808-8.675-10.577-3.469-1.372-7.367-1.311-10.79.167a14.13 14.13 0 0 0-8.273 10.41H0C.665 15.639 3.868 9.869 8.604 5.851L8.6 5.847a24.51 24.51 0 0 1 6.03-3.769A24.49 24.49 0 0 1 22.032.124z" fill="#226338"/></svg>