<?xml version="1.0" encoding="UTF-8" standalone="no"?>
<svg
   width="49.122002"
   height="49.245502"
   viewBox="0 0 49.122002 49.245502"
   version="1.1"
   xml:space="preserve"
   style="clip-rule:evenodd;fill-rule:evenodd;stroke-linejoin:round;stroke-miterlimit:2"
   id="svg866"
   sodipodi:docname="logo.svg"
   inkscape:version="1.1 (c4e8f9e, 2021-05-24)"
   xmlns:inkscape="http://www.inkscape.org/namespaces/inkscape"
   xmlns:sodipodi="http://sodipodi.sourceforge.net/DTD/sodipodi-0.dtd"
   xmlns="http://www.w3.org/2000/svg"
   xmlns:svg="http://www.w3.org/2000/svg"><defs
     id="defs870" /><sodipodi:namedview
     id="namedview868"
     pagecolor="#ffffff"
     bordercolor="#111111"
     borderopacity="1"
     inkscape:pageshadow="0"
     inkscape:pageopacity="0"
     inkscape:pagecheckerboard="1"
     showgrid="false"
     inkscape:zoom="1.0039136"
     inkscape:cx="-23.408389"
     inkscape:cy="-31.875253"
     inkscape:current-layer="svg866" /><path
     d="m 40.136,43.836501 c -3.635,2.961 -8.128,4.908 -13.046,5.409 v -10.692 c 2.01,-0.365 3.872,-1.156 5.488,-2.276 z m -31.15,0 7.559,-7.559 c 1.616,1.12 3.478,1.911 5.487,2.276 v 10.692 c -4.918,-0.502 -9.41,-2.449 -13.046,-5.409 z M 0,27.213501 h 10.692 c 0.365,2.01 1.156,3.871 2.276,5.487 l -7.558,7.559 c -2.961,-3.636 -4.909,-8.128 -5.41,-13.046 z m 49.122,0 c -0.501,4.918 -2.449,9.411 -5.409,13.046 l -7.559,-7.559 c 1.12,-1.616 1.912,-3.478 2.276,-5.487 z M 22.032,0.12950109 c 1.681,-0.172 3.377,-0.173 5.058,-0.001 v -0.005 c 2.23,0.227 4.371,0.752 6.384,1.53200001 2.215,0.855 4.333,2.043 6.278,3.564 l -0.004,0.004 c 5.158,4.031 8.675,10.0669999 9.374,16.9319999 H 38.43 c -0.876,-4.831 -4.219,-8.808 -8.675,-10.577 -3.469,-1.372 -7.367,-1.311 -10.79,0.167 -4.253,1.843 -7.422,5.725 -8.273,10.41 H 0 C 0.665,15.638501 3.868,9.8685011 8.604,5.8505011 l -0.004,-0.004 c 1.853,-1.573 3.887,-2.83 6.03,-3.769 2.305,-1.016 4.794,-1.68800001 7.402,-1.95400001 z"
     style="fill:#226338"
     id="path862" /></svg>
