<?xml version="1.0" encoding="UTF-8" standalone="no"?>
<svg
   width="100%"
   height="100%"
   viewBox="0 0 900 600"
   version="1.1"
   xml:space="preserve"
   style="fill-rule:evenodd;clip-rule:evenodd;stroke-linejoin:round;stroke-miterlimit:2;"
   id="svg866"
   sodipodi:docname="aegis.svg"
   inkscape:version="1.1 (c4e8f9e, 2021-05-24)"
   xmlns:inkscape="http://www.inkscape.org/namespaces/inkscape"
   xmlns:sodipodi="http://sodipodi.sourceforge.net/DTD/sodipodi-0.dtd"
   xmlns="http://www.w3.org/2000/svg"
   xmlns:svg="http://www.w3.org/2000/svg"><defs
     id="defs870" /><sodipodi:namedview
     id="namedview868"
     pagecolor="#ffffff"
     bordercolor="#111111"
     borderopacity="1"
     inkscape:pageshadow="0"
     inkscape:pageopacity="0"
     inkscape:pagecheckerboard="1"
     showgrid="false"
     inkscape:zoom="1.4059586"
     inkscape:cx="607.41476"
     inkscape:cy="334.2915"
     inkscape:current-layer="svg866" /><rect
     x="255.254"
     y="480.907"
     width="90"
     height="60"
     style="fill:#1d6338;"
     id="rect822" /><rect
     x="361.452"
     y="480.907"
     width="90"
     height="60"
     style="fill:#f4f5f5;"
     id="rect824" /><g
     id="g828"><path
       d="M315.829,530.058c-3.636,2.961 -8.129,4.909 -13.046,5.41l-0,-10.692c2.009,-0.365 3.871,-1.156 5.487,-2.276l7.559,7.558Zm-31.151,0l7.559,-7.558c1.617,1.12 3.478,1.911 5.487,2.276l0,10.692c-4.918,-0.502 -9.41,-2.449 -13.046,-5.41Zm-8.986,-16.622l10.692,-0c0.365,2.01 1.156,3.871 2.277,5.487l-7.559,7.559c-2.961,-3.636 -4.908,-8.129 -5.41,-13.046Zm49.123,-0c-0.502,4.918 -2.449,9.41 -5.41,13.046l-7.559,-7.559c1.121,-1.616 1.912,-3.478 2.277,-5.487l10.692,-0Zm-22.032,-27.09c11.61,1.184 20.849,10.425 22.032,22.032l-10.692,-0c-1.044,-5.754 -5.586,-10.296 -11.34,-11.34l-0,-10.692Zm-5.059,-0l0,10.692c-5.753,1.044 -10.295,5.585 -11.34,11.34l-10.692,-0c1.185,-11.61 10.425,-20.85 22.032,-22.032Z"
       style="fill:#fefffe;"
       id="path826" /></g><rect
     x="333.454"
     y="306.954"
     width="90"
     height="60"
     style="fill:#f4f5f5;"
     id="rect830" /><rect
     x="201.475"
     y="303.665"
     width="66.578"
     height="66.578"
     style="fill:#e5fed8;"
     id="rect832" /><path
     d="M392.186,356.167c-3.635,2.961 -8.128,4.909 -13.046,5.41l0,-10.692c2.01,-0.365 3.871,-1.156 5.487,-2.276l7.559,7.558Zm-31.15,0l7.559,-7.558c1.616,1.12 3.478,1.911 5.487,2.276l0,10.692c-4.918,-0.502 -9.411,-2.449 -13.046,-5.41Zm-8.986,-16.622l10.692,-0c0.365,2.01 1.156,3.871 2.276,5.487l-7.559,7.559c-2.961,-3.636 -4.908,-8.129 -5.409,-13.046Zm49.122,-0c-0.501,4.918 -2.449,9.41 -5.409,13.046l-7.559,-7.559c1.12,-1.616 1.912,-3.478 2.276,-5.487l10.692,-0Zm-27.09,-27.084c1.681,-0.172 3.377,-0.173 5.058,-0.001l0,-0.005c2.229,0.227 4.371,0.751 6.384,1.532c2.215,0.855 4.333,2.042 6.277,3.563l-0.003,0.004c5.158,4.031 8.675,10.068 9.374,16.933l-10.692,-0c-0.876,-4.832 -4.219,-8.809 -8.675,-10.578c-3.469,-1.372 -7.367,-1.31 -10.79,0.167c-4.253,1.844 -7.422,5.725 -8.273,10.411l-10.692,-0c0.665,-6.517 3.868,-12.287 8.604,-16.305l-0.004,-0.005c1.853,-1.573 3.887,-2.83 6.029,-3.769c2.306,-1.015 4.795,-1.688 7.403,-1.953l0,0.006Z"
     style="fill:#1d6338;"
     id="path834" /><path
     d="M250.339,356.167c-3.636,2.961 -8.129,4.909 -13.046,5.41l-0,-10.692c2.009,-0.365 3.871,-1.156 5.487,-2.276l7.559,7.558Zm-31.15,0l7.558,-7.558c1.617,1.12 3.478,1.911 5.488,2.276l-0,10.692c-4.918,-0.502 -9.411,-2.449 -13.046,-5.41Zm-8.986,-16.622l10.692,-0c0.364,2.01 1.156,3.871 2.276,5.487l-7.559,7.559c-2.961,-3.636 -4.908,-8.129 -5.409,-13.046Zm49.122,-0c-0.502,4.918 -2.449,9.41 -5.41,13.046l-7.558,-7.559c1.12,-1.616 1.911,-3.478 2.276,-5.487l10.692,-0Zm-27.09,-27.084c1.68,-0.172 3.376,-0.173 5.058,-0.001l-0,-0.005c2.229,0.227 4.371,0.751 6.384,1.532c2.214,0.855 4.332,2.042 6.277,3.563l-0.004,0.004c5.158,4.031 8.676,10.068 9.375,16.933l-10.692,-0c-0.877,-4.832 -4.22,-8.809 -8.675,-10.578c-3.469,-1.372 -7.368,-1.31 -10.79,0.167c-4.254,1.844 -7.423,5.725 -8.273,10.411l-10.692,-0c0.664,-6.517 3.867,-12.287 8.604,-16.305l-0.005,-0.005c1.853,-1.573 3.888,-2.83 6.03,-3.769c2.306,-1.015 4.794,-1.688 7.403,-1.953l-0,0.006Z"
     style="fill:#1d6338;"
     id="path836" /><rect
     x="458.201"
     y="337.245"
     width="423.96"
     height="104.836"
     style="fill:#e5fed8;"
     id="rect838" /><g
     aria-label="Aegis"
     transform="scale(1.0189567,0.98139594)"
     id="text840"
     style="font-weight:600;font-size:43.5288px;font-family:Jost-SemiBold, Jost;fill:#1d6338;fill-rule:nonzero;stroke-width:0.981396"><path
       d="m 685.83602,298.08112 h 16.10566 l -0.73999,-4.91876 h -14.62568 z m 7.96578,-13.66805 4.57052,10.5775 -0.0871,1.56704 3.91759,8.44459 h 7.05167 L 693.8018,272.74736 678.34907,305.0022 h 7.00814 l 4.00465,-8.70576 -0.13059,-1.39292 z"
       style="font-weight:600;font-size:43.5288px;font-family:Jost-SemiBold, Jost;fill:#1d6338;fill-rule:nonzero;stroke-width:0.981396"
       id="path1038" /><path
       d="m 721.48339,305.43749 q 3.61289,0 6.18109,-1.39293 2.61173,-1.43645 4.17877,-4.26582 l -4.91876,-1.52351 q -0.87057,1.43645 -2.21997,2.17644 -1.30586,0.69646 -3.1776,0.69646 -1.65409,0 -2.82937,-0.73999 -1.17528,-0.73999 -1.78468,-2.13291 -0.56588,-1.39292 -0.56588,-3.39524 0.0435,-2.08939 0.60941,-3.48231 0.6094,-1.43645 1.69762,-2.13291 1.13175,-0.73999 2.78584,-0.73999 1.3494,0 2.35056,0.6094 1.00116,0.60941 1.52351,1.6541 0.56587,1.04469 0.56587,2.52467 0,0.3047 -0.17411,0.78352 -0.13059,0.43529 -0.30471,0.69646 l 1.52351,-2.00233 h -13.01511 v 3.48231 h 17.93387 q 0.0435,-0.26117 0.0435,-0.69646 0.0435,-0.43529 0.0435,-0.82705 0,-3.22113 -1.2188,-5.48463 -1.21881,-2.30703 -3.56936,-3.4823 -2.30703,-1.21881 -5.61522,-1.21881 -3.30819,0 -5.7458,1.30586 -2.43761,1.26234 -3.78701,3.6129 -1.30586,2.30702 -1.30586,5.52815 0,3.17761 1.30586,5.52816 1.3494,2.30703 3.78701,3.61289 2.43761,1.30587 5.70227,1.30587 z"
       style="font-weight:600;font-size:43.5288px;font-family:Jost-SemiBold, Jost;fill:#1d6338;fill-rule:nonzero;stroke-width:0.981396"
       id="path1040" /><path
       d="m 735.22489,306.39512 q 0.17412,2.61173 1.39292,4.61405 1.26234,2.04586 3.61289,3.13408 2.35056,1.13174 5.83286,1.13174 2.8729,0 5.31052,-1.13174 2.43761,-1.08822 3.87406,-3.48231 1.47998,-2.39408 1.47998,-6.09403 v -19.58796 h -5.4411 v 19.58796 q 0,2.04585 -0.78352,3.39525 -0.73999,1.34939 -2.00232,2.00232 -1.21881,0.65293 -2.61173,0.65293 -1.52351,0 -2.65526,-0.52234 -1.13175,-0.52235 -1.78468,-1.47998 -0.65293,-0.91411 -0.69646,-2.21997 z m -0.39176,-11.57866 q 0,3.30819 1.3494,5.61521 1.34939,2.2635 3.56936,3.43878 2.21997,1.17528 4.70111,1.17528 2.52467,0 4.43994,-1.17528 1.95879,-1.21881 3.04701,-3.52583 1.13175,-2.30703 1.13175,-5.52816 0,-3.26466 -1.13175,-5.52816 -1.08822,-2.30703 -3.04701,-3.52583 -1.91527,-1.21881 -4.43994,-1.21881 -2.48114,0 -4.70111,1.17528 -2.21997,1.17528 -3.56936,3.4823 -1.3494,2.2635 -1.3494,5.61522 z m 5.83286,0 q 0,-1.82821 0.73999,-3.04702 0.73999,-1.26233 2.00233,-1.91527 1.26233,-0.65293 2.69878,-0.65293 0.95764,0 1.87174,0.39176 0.91411,0.34823 1.6541,1.04469 0.78351,0.69646 1.2188,1.74115 0.43529,1.0447 0.43529,2.43762 0,1.82821 -0.78352,3.09054 -0.73999,1.21881 -1.95879,1.87174 -1.17528,0.6094 -2.43762,0.6094 -1.43645,0 -2.69878,-0.65293 -1.26234,-0.65293 -2.00233,-1.87174 -0.73999,-1.26233 -0.73999,-3.04701 z"
       style="font-weight:600;font-size:43.5288px;font-family:Jost-SemiBold, Jost;fill:#1d6338;fill-rule:nonzero;stroke-width:0.981396"
       id="path1042" /><path
       d="m 761.93661,277.23082 q 0,1.3494 1.00116,2.2635 1.00117,0.9141 2.39409,0.9141 1.39292,0 2.35055,-0.9141 1.00117,-0.9141 1.00117,-2.2635 0,-1.39292 -1.00117,-2.2635 -0.95763,-0.9141 -2.35055,-0.9141 -1.39292,0 -2.39409,0.9141 -1.00116,0.87058 -1.00116,2.2635 z m 0.60941,7.74813 v 20.02325 h 5.48462 v -20.02325 z"
       style="font-weight:600;font-size:43.5288px;font-family:Jost-SemiBold, Jost;fill:#1d6338;fill-rule:nonzero;stroke-width:0.981396"
       id="path1044" /><path
       d="m 775.01634,298.08112 -2.74232,3.52583 q 1.13175,1.08822 2.52467,2.04585 1.43645,0.91411 3.17761,1.47998 1.78468,0.56588 3.91759,0.56588 3.43877,0 5.39757,-1.6541 1.9588,-1.69762 1.9588,-4.70111 0,-1.82821 -0.82705,-2.95996 -0.82705,-1.13174 -2.21997,-1.87173 -1.34939,-0.78352 -2.95996,-1.39293 -1.30586,-0.56587 -2.35055,-0.95763 -1.00117,-0.39176 -1.56704,-0.87058 -0.52235,-0.52234 -0.52235,-1.17527 0,-0.73999 0.52235,-1.08822 0.56587,-0.39176 1.52351,-0.39176 1.43645,0 2.91643,0.73999 1.5235,0.73999 2.61172,1.91526 l 2.48115,-3.4823 q -0.95764,-0.95763 -2.21997,-1.65409 -1.26234,-0.73999 -2.74232,-1.17528 -1.47998,-0.43529 -3.1776,-0.43529 -2.00232,0 -3.65642,0.65293 -1.61056,0.60941 -2.5682,1.87174 -0.95763,1.21881 -0.95763,3.00349 0,1.87174 0.82705,3.09054 0.87057,1.17528 2.17644,1.91527 1.30586,0.69646 2.69878,1.21881 1.47998,0.47881 2.43761,0.9141 0.95764,0.43529 1.43645,1.00116 0.52235,0.52235 0.52235,1.30587 0,0.87057 -0.6094,1.39292 -0.60941,0.47882 -1.74116,0.47882 -0.87057,0 -1.87173,-0.34823 -0.95764,-0.34823 -2.04586,-1.04469 -1.08822,-0.73999 -2.35055,-1.91527 z"
       style="font-weight:600;font-size:43.5288px;font-family:Jost-SemiBold, Jost;fill:#1d6338;fill-rule:nonzero;stroke-width:0.981396"
       id="path1046" /></g><path
     d="m 672.229,306.922 c -3.636,2.961 -8.129,4.908 -13.046,5.409 v -10.692 c 2.009,-0.365 3.871,-1.156 5.487,-2.276 z m -31.15,0 7.558,-7.559 c 1.617,1.12 3.478,1.911 5.487,2.276 v 10.692 c -4.918,-0.501 -9.41,-2.449 -13.045,-5.409 z m -8.987,-16.623 h 10.693 c 0.364,2.01 1.155,3.871 2.276,5.487 l -7.559,7.559 c -2.961,-3.635 -4.908,-8.128 -5.41,-13.046 z m 49.123,0 c -0.502,4.918 -2.449,9.411 -5.41,13.046 l -7.558,-7.559 c 1.12,-1.616 1.911,-3.477 2.276,-5.487 z m -27.091,-27.084 c 1.681,-0.172 3.377,-0.173 5.059,-10e-4 v -0.005 c 2.229,0.227 4.371,0.752 6.384,1.532 2.214,0.855 4.332,2.043 6.277,3.564 l -0.004,0.004 c 5.158,4.031 8.675,10.068 9.375,16.932 h -10.692 c -0.877,-4.831 -4.22,-8.808 -8.675,-10.577 -3.469,-1.372 -7.368,-1.31 -10.79,0.167 -4.254,1.844 -7.423,5.725 -8.273,10.41 h -10.693 c 0.665,-6.517 3.868,-12.287 8.604,-16.305 l -0.004,-0.004 c 1.853,-1.573 3.887,-2.83 6.03,-3.769 2.306,-1.016 4.794,-1.688 7.402,-1.954 z"
     style="fill:#1d6338"
     id="path844" /><g
     aria-label="Aegis"
     transform="scale(1.0189567,0.98139594)"
     id="text848"
     style="font-weight:600;font-size:43.5288px;font-family:Jost-SemiBold, Jost;fill:#1d6338;fill-rule:nonzero;stroke-width:0.981396"><path
       d="m 638.75259,401.96784 h 16.10566 l -0.73999,-4.91876 h -14.62568 z m 7.96577,-13.66805 4.57052,10.5775 -0.087,1.56704 3.91759,8.44459 h 7.05166 l -15.45272,-32.25485 -15.45272,32.25485 h 7.00813 l 4.00465,-8.70576 -0.13058,-1.39293 z"
       style="font-weight:600;font-size:43.5288px;font-family:Jost-SemiBold, Jost;fill:#1d6338;fill-rule:nonzero;stroke-width:0.981396"
       id="path1093" /><path
       d="m 674.39996,409.3242 q 3.61289,0 6.18109,-1.39292 2.61172,-1.43645 4.17876,-4.26582 l -4.91875,-1.52351 q -0.87058,1.43645 -2.21997,2.17644 -1.30587,0.69646 -3.1776,0.69646 -1.6541,0 -2.82938,-0.73999 -1.17527,-0.73999 -1.78468,-2.13291 -0.56587,-1.39292 -0.56587,-3.39524 0.0435,-2.08939 0.6094,-3.48231 0.6094,-1.43645 1.69762,-2.13291 1.13175,-0.73999 2.78585,-0.73999 1.34939,0 2.35055,0.6094 1.00117,0.60941 1.52351,1.6541 0.56588,1.04469 0.56588,2.52467 0,0.3047 -0.17412,0.78352 -0.13059,0.43528 -0.3047,0.69646 l 1.52351,-2.00233 h -13.01511 v 3.48231 h 17.93386 q 0.0435,-0.26118 0.0435,-0.69646 0.0435,-0.43529 0.0435,-0.82705 0,-3.22113 -1.21881,-5.48463 -1.2188,-2.30703 -3.56936,-3.4823 -2.30703,-1.21881 -5.61521,-1.21881 -3.30819,0 -5.74581,1.30586 -2.43761,1.26234 -3.787,3.61289 -1.30587,2.30703 -1.30587,5.52816 0,3.1776 1.30587,5.52816 1.34939,2.30703 3.787,3.61289 2.43762,1.30586 5.70228,1.30586 z"
       style="font-weight:600;font-size:43.5288px;font-family:Jost-SemiBold, Jost;fill:#1d6338;fill-rule:nonzero;stroke-width:0.981396"
       id="path1095" /><path
       d="m 688.14146,410.28184 q 0.17411,2.61173 1.39292,4.61405 1.26233,2.04585 3.61289,3.13407 2.35055,1.13175 5.83286,1.13175 2.8729,0 5.31051,-1.13175 2.43762,-1.08822 3.87407,-3.4823 1.47997,-2.39408 1.47997,-6.09403 v -19.58796 h -5.4411 v 19.58796 q 0,2.04585 -0.78351,3.39524 -0.73999,1.3494 -2.00233,2.00233 -1.2188,0.65293 -2.61173,0.65293 -1.5235,0 -2.65525,-0.52234 -1.13175,-0.52235 -1.78468,-1.47998 -0.65294,-0.91411 -0.69646,-2.21997 z m -0.39176,-11.57866 q 0,3.30819 1.34939,5.61521 1.34939,2.2635 3.56936,3.43878 2.21997,1.17527 4.70111,1.17527 2.52467,0 4.43994,-1.17527 1.9588,-1.21881 3.04702,-3.52584 1.13175,-2.30702 1.13175,-5.52815 0,-3.26466 -1.13175,-5.52816 -1.08822,-2.30703 -3.04702,-3.52583 -1.91527,-1.21881 -4.43994,-1.21881 -2.48114,0 -4.70111,1.17528 -2.21997,1.17527 -3.56936,3.4823 -1.34939,2.2635 -1.34939,5.61522 z m 5.83286,0 q 0,-1.82821 0.73999,-3.04702 0.73999,-1.26233 2.00232,-1.91527 1.26234,-0.65293 2.69879,-0.65293 0.95763,0 1.87174,0.39176 0.9141,0.34823 1.65409,1.04469 0.78352,0.69646 1.21881,1.74115 0.43528,1.04469 0.43528,2.43762 0,1.82821 -0.78351,3.09054 -0.73999,1.21881 -1.9588,1.87174 -1.17528,0.6094 -2.43761,0.6094 -1.43645,0 -2.69879,-0.65293 -1.26233,-0.65293 -2.00232,-1.87174 -0.73999,-1.26233 -0.73999,-3.04701 z"
       style="font-weight:600;font-size:43.5288px;font-family:Jost-SemiBold, Jost;fill:#1d6338;fill-rule:nonzero;stroke-width:0.981396"
       id="path1097" /><path
       d="m 714.85318,381.11754 q 0,1.34939 1.00116,2.2635 1.00116,0.9141 2.39408,0.9141 1.39293,0 2.35056,-0.9141 1.00116,-0.91411 1.00116,-2.2635 0,-1.39292 -1.00116,-2.2635 -0.95763,-0.9141 -2.35056,-0.9141 -1.39292,0 -2.39408,0.9141 -1.00116,0.87058 -1.00116,2.2635 z m 0.6094,7.74813 v 20.02325 h 5.48463 v -20.02325 z"
       style="font-weight:600;font-size:43.5288px;font-family:Jost-SemiBold, Jost;fill:#1d6338;fill-rule:nonzero;stroke-width:0.981396"
       id="path1099" /><path
       d="m 727.9329,401.96784 -2.74231,3.52583 q 1.13175,1.08822 2.52467,2.04585 1.43645,0.91411 3.1776,1.47998 1.78468,0.56588 3.91759,0.56588 3.43878,0 5.39757,-1.6541 1.9588,-1.69762 1.9588,-4.70111 0,-1.82821 -0.82705,-2.95996 -0.82704,-1.13175 -2.21997,-1.87174 -1.34939,-0.78351 -2.95995,-1.39292 -1.30587,-0.56587 -2.35056,-0.95763 -1.00116,-0.39176 -1.56704,-0.87058 -0.52234,-0.52234 -0.52234,-1.17527 0,-0.73999 0.52234,-1.08822 0.56588,-0.39176 1.52351,-0.39176 1.43645,0 2.91643,0.73999 1.52351,0.73999 2.61173,1.91526 l 2.48114,-3.4823 q -0.95763,-0.95763 -2.21997,-1.65409 -1.26233,-0.73999 -2.74231,-1.17528 -1.47998,-0.43529 -3.1776,-0.43529 -2.00233,0 -3.65642,0.65293 -1.61057,0.6094 -2.5682,1.87174 -0.95764,1.21881 -0.95764,3.00349 0,1.87174 0.82705,3.09054 0.87058,1.17528 2.17644,1.91527 1.30586,0.69646 2.69879,1.21881 1.47998,0.47881 2.43761,0.9141 0.95763,0.43529 1.43645,1.00116 0.52235,0.52235 0.52235,1.30587 0,0.87057 -0.60941,1.39292 -0.6094,0.47882 -1.74115,0.47882 -0.87058,0 -1.87174,-0.34823 -0.95763,-0.34824 -2.04585,-1.0447 -1.08822,-0.73999 -2.35056,-1.91526 z"
       style="font-weight:600;font-size:43.5288px;font-family:Jost-SemiBold, Jost;fill:#1d6338;fill-rule:nonzero;stroke-width:0.981396"
       id="path1101" /></g><path
     d="m 624.253,408.876 c -3.636,2.961 -8.129,4.908 -13.046,5.409 v -10.692 c 2.009,-0.365 3.871,-1.156 5.487,-2.276 z m -31.151,0 7.559,-7.559 c 1.617,1.12 3.478,1.911 5.487,2.276 v 10.692 c -4.918,-0.502 -9.41,-2.449 -13.046,-5.409 z m -8.986,-16.623 h 10.692 c 0.365,2.01 1.156,3.871 2.277,5.487 l -7.559,7.559 c -2.961,-3.636 -4.908,-8.129 -5.41,-13.046 z m 49.123,0 c -0.502,4.918 -2.449,9.411 -5.41,13.046 l -7.559,-7.559 c 1.121,-1.616 1.912,-3.478 2.277,-5.487 z m -27.091,-27.084 c 1.681,-0.172 3.377,-0.173 5.059,-10e-4 v -0.005 c 2.229,0.227 4.371,0.752 6.384,1.532 2.214,0.855 4.332,2.043 6.277,3.564 l -0.004,0.003 c 5.158,4.032 8.675,10.068 9.375,16.933 h -10.692 c -0.877,-4.831 -4.22,-8.808 -8.675,-10.577 -3.469,-1.372 -7.368,-1.311 -10.79,0.166 -4.254,1.844 -7.423,5.726 -8.274,10.411 h -10.692 c 0.665,-6.517 3.868,-12.287 8.604,-16.305 l -0.004,-0.004 c 1.853,-1.574 3.887,-2.83 6.03,-3.77 2.306,-1.015 4.794,-1.688 7.402,-1.953 z"
     style="fill:#1d6338"
     id="path852" /><g
     id="g858"><path
       d="M422.027,530.058c-3.635,2.961 -8.128,4.909 -13.046,5.41l0,-10.692c2.01,-0.365 3.872,-1.156 5.488,-2.276l7.558,7.558Zm-31.15,0l7.559,-7.558c1.616,1.12 3.478,1.911 5.487,2.276l0,10.692c-4.918,-0.502 -9.41,-2.449 -13.046,-5.41Zm-8.986,-16.622l10.692,-0c0.365,2.01 1.156,3.871 2.276,5.487l-7.558,7.559c-2.961,-3.636 -4.909,-8.129 -5.41,-13.046Zm49.122,-0c-0.501,4.918 -2.449,9.41 -5.409,13.046l-7.559,-7.559c1.12,-1.616 1.912,-3.478 2.276,-5.487l10.692,-0Zm-22.032,-27.09c11.61,1.184 20.85,10.425 22.032,22.032l-10.692,-0c-1.044,-5.754 -5.585,-10.296 -11.34,-11.34l0,-10.692Zm-5.058,-0l0,10.692c-5.753,1.044 -10.295,5.585 -11.34,11.34l-10.692,-0c1.185,-11.61 10.425,-20.85 22.032,-22.032Z"
       style="fill:#1d6338;"
       id="path856" /></g><path
     d="M422.027,530.058c-3.635,2.961 -8.128,4.909 -13.046,5.41l0,-10.692c2.01,-0.365 3.872,-1.156 5.488,-2.276l7.558,7.558Zm-31.15,0l7.559,-7.558c1.616,1.12 3.478,1.911 5.487,2.276l0,10.692c-4.918,-0.502 -9.41,-2.449 -13.046,-5.41Zm-8.986,-16.622l10.692,-0c0.365,2.01 1.156,3.871 2.276,5.487l-7.558,7.559c-2.961,-3.636 -4.909,-8.129 -5.41,-13.046Zm49.122,-0c-0.501,4.918 -2.449,9.41 -5.409,13.046l-7.559,-7.559c1.12,-1.616 1.912,-3.478 2.276,-5.487l10.692,-0Zm-27.09,-27.084c1.681,-0.172 3.377,-0.173 5.058,-0.001l0,-0.005c2.23,0.227 4.371,0.751 6.384,1.532c2.215,0.855 4.333,2.042 6.278,3.563l-0.004,0.004c5.158,4.031 8.675,10.068 9.374,16.933l-10.692,-0c-0.876,-4.832 -4.219,-8.808 -8.675,-10.578c-3.469,-1.371 -7.367,-1.31 -10.79,0.167c-4.253,1.844 -7.422,5.725 -8.273,10.411l-10.692,-0c0.665,-6.517 3.868,-12.287 8.604,-16.305l-0.004,-0.004c1.853,-1.574 3.887,-2.831 6.03,-3.77c2.305,-1.015 4.794,-1.688 7.402,-1.953l0,0.006Z"
     style="fill:#1d6338;"
     id="path860" /><path
     d="M506.53,535.61c-3.635,2.961 -8.128,4.908 -13.046,5.409l0,-10.692c2.01,-0.365 3.872,-1.156 5.488,-2.276l7.558,7.559Zm-31.15,-0l7.559,-7.559c1.616,1.12 3.478,1.911 5.487,2.276l0,10.692c-4.918,-0.502 -9.41,-2.449 -13.046,-5.409Zm-8.986,-16.623l10.692,0c0.365,2.01 1.156,3.871 2.276,5.487l-7.558,7.559c-2.961,-3.636 -4.909,-8.128 -5.41,-13.046Zm49.122,0c-0.501,4.918 -2.449,9.411 -5.409,13.046l-7.559,-7.559c1.12,-1.616 1.912,-3.478 2.276,-5.487l10.692,0Zm-27.09,-27.084c1.681,-0.172 3.377,-0.173 5.058,-0.001l0,-0.005c2.23,0.227 4.371,0.752 6.384,1.532c2.215,0.855 4.333,2.043 6.278,3.564l-0.004,0.004c5.158,4.031 8.675,10.067 9.374,16.932l-10.692,-0c-0.876,-4.831 -4.219,-8.808 -8.675,-10.577c-3.469,-1.372 -7.367,-1.311 -10.79,0.167c-4.253,1.843 -7.422,5.725 -8.273,10.41l-10.692,-0c0.665,-6.517 3.868,-12.287 8.604,-16.305l-0.004,-0.004c1.853,-1.573 3.887,-2.83 6.03,-3.769c2.305,-1.016 4.794,-1.688 7.402,-1.954l0,0.006Z"
     style="fill:#226338;"
     id="path862" /><path
     d="M315.829,530.182c-3.636,2.961 -8.129,4.908 -13.046,5.409l-0,-10.692c2.009,-0.365 3.871,-1.156 5.487,-2.276l7.559,7.559Zm-31.151,-0l7.559,-7.559c1.617,1.12 3.478,1.911 5.487,2.276l0,10.692c-4.918,-0.501 -9.41,-2.449 -13.046,-5.409Zm-8.986,-16.623l10.692,0c0.365,2.01 1.156,3.871 2.277,5.487l-7.559,7.559c-2.961,-3.635 -4.908,-8.128 -5.41,-13.046Zm49.123,0c-0.502,4.918 -2.449,9.411 -5.41,13.046l-7.559,-7.559c1.121,-1.616 1.912,-3.478 2.277,-5.487l10.692,0Zm-27.091,-27.084c1.681,-0.172 3.377,-0.173 5.059,-0.001l-0,-0.005c2.229,0.227 4.371,0.752 6.383,1.532c2.215,0.855 4.333,2.043 6.278,3.564l-0.004,0.004c5.158,4.031 8.675,10.068 9.375,16.932l-10.692,-0c-0.877,-4.831 -4.22,-8.808 -8.675,-10.577c-3.469,-1.372 -7.368,-1.311 -10.79,0.167c-4.254,1.843 -7.423,5.725 -8.274,10.41l-10.692,-0c0.665,-6.517 3.868,-12.287 8.604,-16.305l-0.004,-0.004c1.853,-1.573 3.887,-2.83 6.03,-3.769c2.306,-1.016 4.794,-1.688 7.402,-1.954l0,0.006Z"
     style="fill:#fff;"
     id="path864" /></svg>
