<?xml version="1.0" encoding="UTF-8" standalone="no"?><!DOCTYPE svg PUBLIC "-//W3C//DTD SVG 1.1//EN" "http://www.w3.org/Graphics/SVG/1.1/DTD/svg11.dtd"><svg width="100%" height="100%" viewBox="0 0 900 600" version="1.1" xmlns="http://www.w3.org/2000/svg" xmlns:xlink="http://www.w3.org/1999/xlink" xml:space="preserve" xmlns:serif="http://www.serif.com/" style="fill-rule:evenodd;clip-rule:evenodd;stroke-linejoin:round;stroke-miterlimit:2;"><rect x="255.254" y="480.907" width="90" height="60" style="fill:#1d6338;"/><rect x="361.452" y="480.907" width="90" height="60" style="fill:#f4f5f5;"/><g><path d="M315.829,530.058c-3.636,2.961 -8.129,4.909 -13.046,5.41l-0,-10.692c2.009,-0.365 3.871,-1.156 5.487,-2.276l7.559,7.558Zm-31.151,0l7.559,-7.558c1.617,1.12 3.478,1.911 5.487,2.276l0,10.692c-4.918,-0.502 -9.41,-2.449 -13.046,-5.41Zm-8.986,-16.622l10.692,-0c0.365,2.01 1.156,3.871 2.277,5.487l-7.559,7.559c-2.961,-3.636 -4.908,-8.129 -5.41,-13.046Zm49.123,-0c-0.502,4.918 -2.449,9.41 -5.41,13.046l-7.559,-7.559c1.121,-1.616 1.912,-3.478 2.277,-5.487l10.692,-0Zm-22.032,-27.09c11.61,1.184 20.849,10.425 22.032,22.032l-10.692,-0c-1.044,-5.754 -5.586,-10.296 -11.34,-11.34l-0,-10.692Zm-5.059,-0l0,10.692c-5.753,1.044 -10.295,5.585 -11.34,11.34l-10.692,-0c1.185,-11.61 10.425,-20.85 22.032,-22.032Z" style="fill:#fefffe;"/></g><rect x="333.454" y="306.954" width="90" height="60" style="fill:#f4f5f5;"/><rect x="201.475" y="303.665" width="66.578" height="66.578" style="fill:#e5fed8;"/><path d="M392.186,356.167c-3.635,2.961 -8.128,4.909 -13.046,5.41l0,-10.692c2.01,-0.365 3.871,-1.156 5.487,-2.276l7.559,7.558Zm-31.15,0l7.559,-7.558c1.616,1.12 3.478,1.911 5.487,2.276l0,10.692c-4.918,-0.502 -9.411,-2.449 -13.046,-5.41Zm-8.986,-16.622l10.692,-0c0.365,2.01 1.156,3.871 2.276,5.487l-7.559,7.559c-2.961,-3.636 -4.908,-8.129 -5.409,-13.046Zm49.122,-0c-0.501,4.918 -2.449,9.41 -5.409,13.046l-7.559,-7.559c1.12,-1.616 1.912,-3.478 2.276,-5.487l10.692,-0Zm-27.09,-27.084c1.681,-0.172 3.377,-0.173 5.058,-0.001l0,-0.005c2.229,0.227 4.371,0.751 6.384,1.532c2.215,0.855 4.333,2.042 6.277,3.563l-0.003,0.004c5.158,4.031 8.675,10.068 9.374,16.933l-10.692,-0c-0.876,-4.832 -4.219,-8.809 -8.675,-10.578c-3.469,-1.372 -7.367,-1.31 -10.79,0.167c-4.253,1.844 -7.422,5.725 -8.273,10.411l-10.692,-0c0.665,-6.517 3.868,-12.287 8.604,-16.305l-0.004,-0.005c1.853,-1.573 3.887,-2.83 6.029,-3.769c2.306,-1.015 4.795,-1.688 7.403,-1.953l0,0.006Z" style="fill:#1d6338;"/><path d="M250.339,356.167c-3.636,2.961 -8.129,4.909 -13.046,5.41l-0,-10.692c2.009,-0.365 3.871,-1.156 5.487,-2.276l7.559,7.558Zm-31.15,0l7.558,-7.558c1.617,1.12 3.478,1.911 5.488,2.276l-0,10.692c-4.918,-0.502 -9.411,-2.449 -13.046,-5.41Zm-8.986,-16.622l10.692,-0c0.364,2.01 1.156,3.871 2.276,5.487l-7.559,7.559c-2.961,-3.636 -4.908,-8.129 -5.409,-13.046Zm49.122,-0c-0.502,4.918 -2.449,9.41 -5.41,13.046l-7.558,-7.559c1.12,-1.616 1.911,-3.478 2.276,-5.487l10.692,-0Zm-27.09,-27.084c1.68,-0.172 3.376,-0.173 5.058,-0.001l-0,-0.005c2.229,0.227 4.371,0.751 6.384,1.532c2.214,0.855 4.332,2.042 6.277,3.563l-0.004,0.004c5.158,4.031 8.676,10.068 9.375,16.933l-10.692,-0c-0.877,-4.832 -4.22,-8.809 -8.675,-10.578c-3.469,-1.372 -7.368,-1.31 -10.79,0.167c-4.254,1.844 -7.423,5.725 -8.273,10.411l-10.692,-0c0.664,-6.517 3.867,-12.287 8.604,-16.305l-0.005,-0.005c1.853,-1.573 3.888,-2.83 6.03,-3.769c2.306,-1.015 4.794,-1.688 7.403,-1.953l-0,0.006Z" style="fill:#1d6338;"/><rect x="458.201" y="337.245" width="423.96" height="104.836" style="fill:#e5fed8;"/><g><g transform="matrix(1,0,0,0.963138,1.13687e-13,-2.70734)"><text x="691.164px" y="313.595px" style="font-family:'Jost-SemiBold', 'Jost';font-weight:600;font-size:44.354px;fill:#1d6338;">Aegis</text></g><path d="M672.229,306.922c-3.636,2.961 -8.129,4.908 -13.046,5.409l-0,-10.692c2.009,-0.365 3.871,-1.156 5.487,-2.276l7.559,7.559Zm-31.15,-0l7.558,-7.559c1.617,1.12 3.478,1.911 5.487,2.276l0,10.692c-4.918,-0.501 -9.41,-2.449 -13.045,-5.409Zm-8.987,-16.623l10.693,0c0.364,2.01 1.155,3.871 2.276,5.487l-7.559,7.559c-2.961,-3.635 -4.908,-8.128 -5.41,-13.046Zm49.123,0c-0.502,4.918 -2.449,9.411 -5.41,13.046l-7.558,-7.559c1.12,-1.616 1.911,-3.477 2.276,-5.487l10.692,0Zm-27.091,-27.084c1.681,-0.172 3.377,-0.173 5.059,-0.001l-0,-0.005c2.229,0.227 4.371,0.752 6.384,1.532c2.214,0.855 4.332,2.043 6.277,3.564l-0.004,0.004c5.158,4.031 8.675,10.068 9.375,16.932l-10.692,0c-0.877,-4.831 -4.22,-8.808 -8.675,-10.577c-3.469,-1.372 -7.368,-1.31 -10.79,0.167c-4.254,1.844 -7.423,5.725 -8.273,10.41l-10.693,0c0.665,-6.517 3.868,-12.287 8.604,-16.305l-0.004,-0.004c1.853,-1.573 3.887,-2.83 6.03,-3.769c2.306,-1.016 4.794,-1.688 7.402,-1.954l0,0.006Z" style="fill:#1d6338;"/></g><g><g transform="matrix(1,0,0,0.963138,1.13687e-13,1.05087)"><text x="643.188px" y="415.549px" style="font-family:'Jost-SemiBold', 'Jost';font-weight:600;font-size:44.354px;fill:#1d6338;">Aegis</text></g><path d="M624.253,408.876c-3.636,2.961 -8.129,4.908 -13.046,5.409l-0,-10.692c2.009,-0.365 3.871,-1.156 5.487,-2.276l7.559,7.559Zm-31.151,-0l7.559,-7.559c1.617,1.12 3.478,1.911 5.487,2.276l0,10.692c-4.918,-0.502 -9.41,-2.449 -13.046,-5.409Zm-8.986,-16.623l10.692,0c0.365,2.01 1.156,3.871 2.277,5.487l-7.559,7.559c-2.961,-3.636 -4.908,-8.129 -5.41,-13.046Zm49.123,0c-0.502,4.918 -2.449,9.411 -5.41,13.046l-7.559,-7.559c1.121,-1.616 1.912,-3.478 2.277,-5.487l10.692,0Zm-27.091,-27.084c1.681,-0.172 3.377,-0.173 5.059,-0.001l-0,-0.005c2.229,0.227 4.371,0.752 6.384,1.532c2.214,0.855 4.332,2.043 6.277,3.564l-0.004,0.003c5.158,4.032 8.675,10.068 9.375,16.933l-10.692,-0c-0.877,-4.831 -4.22,-8.808 -8.675,-10.577c-3.469,-1.372 -7.368,-1.311 -10.79,0.166c-4.254,1.844 -7.423,5.726 -8.274,10.411l-10.692,-0c0.665,-6.517 3.868,-12.287 8.604,-16.305l-0.004,-0.004c1.853,-1.574 3.887,-2.83 6.03,-3.77c2.306,-1.015 4.794,-1.688 7.402,-1.953l0,0.006Z" style="fill:#1d6338;"/></g><g><path d="M422.027,530.058c-3.635,2.961 -8.128,4.909 -13.046,5.41l0,-10.692c2.01,-0.365 3.872,-1.156 5.488,-2.276l7.558,7.558Zm-31.15,0l7.559,-7.558c1.616,1.12 3.478,1.911 5.487,2.276l0,10.692c-4.918,-0.502 -9.41,-2.449 -13.046,-5.41Zm-8.986,-16.622l10.692,-0c0.365,2.01 1.156,3.871 2.276,5.487l-7.558,7.559c-2.961,-3.636 -4.909,-8.129 -5.41,-13.046Zm49.122,-0c-0.501,4.918 -2.449,9.41 -5.409,13.046l-7.559,-7.559c1.12,-1.616 1.912,-3.478 2.276,-5.487l10.692,-0Zm-22.032,-27.09c11.61,1.184 20.85,10.425 22.032,22.032l-10.692,-0c-1.044,-5.754 -5.585,-10.296 -11.34,-11.34l0,-10.692Zm-5.058,-0l0,10.692c-5.753,1.044 -10.295,5.585 -11.34,11.34l-10.692,-0c1.185,-11.61 10.425,-20.85 22.032,-22.032Z" style="fill:#1d6338;"/></g><path d="M422.027,530.058c-3.635,2.961 -8.128,4.909 -13.046,5.41l0,-10.692c2.01,-0.365 3.872,-1.156 5.488,-2.276l7.558,7.558Zm-31.15,0l7.559,-7.558c1.616,1.12 3.478,1.911 5.487,2.276l0,10.692c-4.918,-0.502 -9.41,-2.449 -13.046,-5.41Zm-8.986,-16.622l10.692,-0c0.365,2.01 1.156,3.871 2.276,5.487l-7.558,7.559c-2.961,-3.636 -4.909,-8.129 -5.41,-13.046Zm49.122,-0c-0.501,4.918 -2.449,9.41 -5.409,13.046l-7.559,-7.559c1.12,-1.616 1.912,-3.478 2.276,-5.487l10.692,-0Zm-27.09,-27.084c1.681,-0.172 3.377,-0.173 5.058,-0.001l0,-0.005c2.23,0.227 4.371,0.751 6.384,1.532c2.215,0.855 4.333,2.042 6.278,3.563l-0.004,0.004c5.158,4.031 8.675,10.068 9.374,16.933l-10.692,-0c-0.876,-4.832 -4.219,-8.808 -8.675,-10.578c-3.469,-1.371 -7.367,-1.31 -10.79,0.167c-4.253,1.844 -7.422,5.725 -8.273,10.411l-10.692,-0c0.665,-6.517 3.868,-12.287 8.604,-16.305l-0.004,-0.004c1.853,-1.574 3.887,-2.831 6.03,-3.77c2.305,-1.015 4.794,-1.688 7.402,-1.953l0,0.006Z" style="fill:#1d6338;"/><path d="M506.53,535.61c-3.635,2.961 -8.128,4.908 -13.046,5.409l0,-10.692c2.01,-0.365 3.872,-1.156 5.488,-2.276l7.558,7.559Zm-31.15,-0l7.559,-7.559c1.616,1.12 3.478,1.911 5.487,2.276l0,10.692c-4.918,-0.502 -9.41,-2.449 -13.046,-5.409Zm-8.986,-16.623l10.692,0c0.365,2.01 1.156,3.871 2.276,5.487l-7.558,7.559c-2.961,-3.636 -4.909,-8.128 -5.41,-13.046Zm49.122,0c-0.501,4.918 -2.449,9.411 -5.409,13.046l-7.559,-7.559c1.12,-1.616 1.912,-3.478 2.276,-5.487l10.692,0Zm-27.09,-27.084c1.681,-0.172 3.377,-0.173 5.058,-0.001l0,-0.005c2.23,0.227 4.371,0.752 6.384,1.532c2.215,0.855 4.333,2.043 6.278,3.564l-0.004,0.004c5.158,4.031 8.675,10.067 9.374,16.932l-10.692,-0c-0.876,-4.831 -4.219,-8.808 -8.675,-10.577c-3.469,-1.372 -7.367,-1.311 -10.79,0.167c-4.253,1.843 -7.422,5.725 -8.273,10.41l-10.692,-0c0.665,-6.517 3.868,-12.287 8.604,-16.305l-0.004,-0.004c1.853,-1.573 3.887,-2.83 6.03,-3.769c2.305,-1.016 4.794,-1.688 7.402,-1.954l0,0.006Z" style="fill:#226338;"/><path d="M315.829,530.182c-3.636,2.961 -8.129,4.908 -13.046,5.409l-0,-10.692c2.009,-0.365 3.871,-1.156 5.487,-2.276l7.559,7.559Zm-31.151,-0l7.559,-7.559c1.617,1.12 3.478,1.911 5.487,2.276l0,10.692c-4.918,-0.501 -9.41,-2.449 -13.046,-5.409Zm-8.986,-16.623l10.692,0c0.365,2.01 1.156,3.871 2.277,5.487l-7.559,7.559c-2.961,-3.635 -4.908,-8.128 -5.41,-13.046Zm49.123,0c-0.502,4.918 -2.449,9.411 -5.41,13.046l-7.559,-7.559c1.121,-1.616 1.912,-3.478 2.277,-5.487l10.692,0Zm-27.091,-27.084c1.681,-0.172 3.377,-0.173 5.059,-0.001l-0,-0.005c2.229,0.227 4.371,0.752 6.383,1.532c2.215,0.855 4.333,2.043 6.278,3.564l-0.004,0.004c5.158,4.031 8.675,10.068 9.375,16.932l-10.692,-0c-0.877,-4.831 -4.22,-8.808 -8.675,-10.577c-3.469,-1.372 -7.368,-1.311 -10.79,0.167c-4.254,1.843 -7.423,5.725 -8.274,10.41l-10.692,-0c0.665,-6.517 3.868,-12.287 8.604,-16.305l-0.004,-0.004c1.853,-1.573 3.887,-2.83 6.03,-3.769c2.306,-1.016 4.794,-1.688 7.402,-1.954l0,0.006Z" style="fill:#fff;"/></svg>