<svg xmlns="http://www.w3.org/2000/svg" width="172.12" height="49.246" fill-rule="evenodd" stroke-linejoin="round" stroke-miterlimit="2" fill="#1d6338" xmlns:v="https://vecta.io/nano"><path d="M66.775 29.451h16.412l-.754-4.827H67.529zm8.117-13.414l4.657 10.381-.089 1.538 3.992 8.288h7.186L74.892 4.589 59.146 36.244h7.141l4.081-8.544-.133-1.367zM103.1 36.671q3.682 0 6.299-1.367 2.661-1.41 4.258-4.186l-5.012-1.495q-.887 1.41-2.262 2.136-1.331.684-3.238.684-1.686 0-2.883-.726-1.198-.726-1.819-2.093-.577-1.367-.577-3.332.044-2.051.621-3.418.621-1.41 1.73-2.093 1.153-.726 2.839-.726 1.375 0 2.395.598 1.02.598 1.552 1.623.577 1.025.577 2.478 0 .299-.177.769-.133.427-.31.684l1.552-1.965H95.382v3.418h18.275q.044-.256.044-.684.044-.427.044-.812 0-3.161-1.242-5.383-1.242-2.264-3.637-3.418-2.351-1.196-5.722-1.196-3.371 0-5.855 1.282-2.484 1.239-3.859 3.546-1.331 2.264-1.331 5.425 0 3.119 1.331 5.425 1.375 2.264 3.859 3.546 2.484 1.282 5.811 1.282zm14.002.94q.177 2.563 1.419 4.528 1.286 2.008 3.682 3.076 2.395 1.111 5.944 1.111 2.927 0 5.411-1.111 2.484-1.068 3.948-3.418 1.508-2.35 1.508-5.981V16.593h-5.544v19.224q0 2.008-.798 3.332-.754 1.324-2.04 1.965-1.242.641-2.661.641-1.552 0-2.706-.513-1.153-.513-1.819-1.452-.665-.897-.71-2.179zm-.399-11.363q0 3.247 1.375 5.511 1.375 2.221 3.637 3.375 2.262 1.153 4.79 1.153 2.573 0 4.524-1.153 1.996-1.196 3.105-3.46 1.153-2.264 1.153-5.425 0-3.204-1.153-5.425-1.109-2.264-3.105-3.46-1.952-1.196-4.524-1.196-2.528 0-4.79 1.153-2.262 1.153-3.637 3.418-1.375 2.221-1.375 5.511zm5.944 0q0-1.794.754-2.99.754-1.239 2.04-1.88 1.286-.641 2.75-.641.976 0 1.907.384.931.342 1.686 1.025.798.684 1.242 1.709.444 1.025.444 2.392 0 1.794-.798 3.033-.754 1.196-1.996 1.837-1.198.598-2.484.598-1.464 0-2.75-.641-1.286-.641-2.04-1.837-.754-1.239-.754-2.99zm21.674-17.259q0 1.324 1.02 2.221 1.02.897 2.44.897 1.419 0 2.395-.897 1.02-.897 1.02-2.221 0-1.367-1.02-2.221-.976-.897-2.395-.897-1.419 0-2.44.897-1.02.854-1.02 2.221zm.621 7.604v19.651h5.589V16.593zm12.708 12.858l-2.794 3.46q1.153 1.068 2.573 2.008 1.464.897 3.238 1.452 1.819.555 3.992.555 3.504 0 5.5-1.623 1.996-1.666 1.996-4.614 0-1.794-.843-2.905-.843-1.111-2.262-1.837-1.375-.769-3.016-1.367-1.331-.555-2.395-.94-1.02-.384-1.597-.854-.532-.513-.532-1.153 0-.726.532-1.068.577-.384 1.552-.384 1.464 0 2.972.726 1.552.726 2.661 1.88l2.528-3.418q-.976-.94-2.262-1.623-1.286-.726-2.794-1.153-1.508-.427-3.238-.427-2.04 0-3.726.641-1.641.598-2.617 1.837-.976 1.196-.976 2.948 0 1.837.843 3.033.887 1.153 2.218 1.88 1.331.684 2.75 1.196 1.508.47 2.484.897.976.427 1.464.983.532.513.532 1.282 0 .854-.621 1.367-.621.47-1.774.47-.887 0-1.907-.342-.976-.342-2.085-1.025-1.109-.726-2.395-1.88z" fill-rule="nonzero"/><path d="M40.137 43.837c-3.636 2.961-8.129 4.908-13.046 5.409V38.554a14.03 14.03 0 0 0 5.487-2.276zm-31.15 0l7.558-7.559c1.617 1.12 3.478 1.911 5.487 2.276v10.692c-4.918-.501-9.41-2.449-13.045-5.409zM0 27.214h10.693c.364 2.01 1.155 3.871 2.276 5.487L5.41 40.26A24.58 24.58 0 0 1 0 27.214zm49.123 0a24.58 24.58 0 0 1-5.41 13.046l-7.558-7.559c1.12-1.616 1.911-3.477 2.276-5.487zM22.032.13c1.681-.172 3.377-.173 5.059-.001V.124c2.229.227 4.371.752 6.384 1.532 2.214.855 4.332 2.043 6.277 3.564l-.004.004c5.158 4.031 8.675 10.068 9.375 16.932H38.431c-.877-4.831-4.22-8.808-8.675-10.577a14.16 14.16 0 0 0-10.79.167c-4.254 1.844-7.423 5.725-8.273 10.41H0C.665 15.639 3.868 9.869 8.604 5.851L8.6 5.847a24.51 24.51 0 0 1 6.03-3.769A24.5 24.5 0 0 1 22.032.124z"/></svg>