<?xml version="1.0" encoding="UTF-8" standalone="no"?>
<svg
   width="172.11984"
   height="49.245502"
   viewBox="0 0 172.11984 49.245502"
   version="1.1"
   xml:space="preserve"
   style="clip-rule:evenodd;fill-rule:evenodd;stroke-linejoin:round;stroke-miterlimit:2"
   id="svg866"
   sodipodi:docname="wordmark.svg"
   inkscape:version="1.1 (c4e8f9e, 2021-05-24)"
   xmlns:inkscape="http://www.inkscape.org/namespaces/inkscape"
   xmlns:sodipodi="http://sodipodi.sourceforge.net/DTD/sodipodi-0.dtd"
   xmlns="http://www.w3.org/2000/svg"
   xmlns:svg="http://www.w3.org/2000/svg"><defs
     id="defs870" /><sodipodi:namedview
     id="namedview868"
     pagecolor="#ffffff"
     bordercolor="#111111"
     borderopacity="1"
     inkscape:pageshadow="0"
     inkscape:pageopacity="0"
     inkscape:pagecheckerboard="1"
     showgrid="false"
     inkscape:zoom="1.0039136"
     inkscape:cx="85.166692"
     inkscape:cy="173.32169"
     inkscape:current-layer="svg866" /><g
     aria-label="Aegis"
     transform="matrix(1.0189567,0,0,0.98139594,-632.092,-263.0855)"
     id="text840"
     style="font-weight:600;font-size:43.5288px;font-family:Jost-SemiBold, Jost;fill:#1d6338;fill-rule:nonzero;stroke-width:0.981396"><path
       d="m 685.83602,298.08112 h 16.10566 l -0.73999,-4.91876 h -14.62568 z m 7.96578,-13.66805 4.57052,10.5775 -0.0871,1.56704 3.91759,8.44459 h 7.05167 L 693.8018,272.74736 678.34907,305.0022 h 7.00814 l 4.00465,-8.70576 -0.13059,-1.39292 z"
       style="font-weight:600;font-size:43.5288px;font-family:Jost-SemiBold, Jost;fill:#1d6338;fill-rule:nonzero;stroke-width:0.981396"
       id="path1038" /><path
       d="m 721.48339,305.43749 q 3.61289,0 6.18109,-1.39293 2.61173,-1.43645 4.17877,-4.26582 l -4.91876,-1.52351 q -0.87057,1.43645 -2.21997,2.17644 -1.30586,0.69646 -3.1776,0.69646 -1.65409,0 -2.82937,-0.73999 -1.17528,-0.73999 -1.78468,-2.13291 -0.56588,-1.39292 -0.56588,-3.39524 0.0435,-2.08939 0.60941,-3.48231 0.6094,-1.43645 1.69762,-2.13291 1.13175,-0.73999 2.78584,-0.73999 1.3494,0 2.35056,0.6094 1.00116,0.60941 1.52351,1.6541 0.56587,1.04469 0.56587,2.52467 0,0.3047 -0.17411,0.78352 -0.13059,0.43529 -0.30471,0.69646 l 1.52351,-2.00233 h -13.01511 v 3.48231 h 17.93387 q 0.0435,-0.26117 0.0435,-0.69646 0.0435,-0.43529 0.0435,-0.82705 0,-3.22113 -1.2188,-5.48463 -1.21881,-2.30703 -3.56936,-3.4823 -2.30703,-1.21881 -5.61522,-1.21881 -3.30819,0 -5.7458,1.30586 -2.43761,1.26234 -3.78701,3.6129 -1.30586,2.30702 -1.30586,5.52815 0,3.17761 1.30586,5.52816 1.3494,2.30703 3.78701,3.61289 2.43761,1.30587 5.70227,1.30587 z"
       style="font-weight:600;font-size:43.5288px;font-family:Jost-SemiBold, Jost;fill:#1d6338;fill-rule:nonzero;stroke-width:0.981396"
       id="path1040" /><path
       d="m 735.22489,306.39512 q 0.17412,2.61173 1.39292,4.61405 1.26234,2.04586 3.61289,3.13408 2.35056,1.13174 5.83286,1.13174 2.8729,0 5.31052,-1.13174 2.43761,-1.08822 3.87406,-3.48231 1.47998,-2.39408 1.47998,-6.09403 v -19.58796 h -5.4411 v 19.58796 q 0,2.04585 -0.78352,3.39525 -0.73999,1.34939 -2.00232,2.00232 -1.21881,0.65293 -2.61173,0.65293 -1.52351,0 -2.65526,-0.52234 -1.13175,-0.52235 -1.78468,-1.47998 -0.65293,-0.91411 -0.69646,-2.21997 z m -0.39176,-11.57866 q 0,3.30819 1.3494,5.61521 1.34939,2.2635 3.56936,3.43878 2.21997,1.17528 4.70111,1.17528 2.52467,0 4.43994,-1.17528 1.95879,-1.21881 3.04701,-3.52583 1.13175,-2.30703 1.13175,-5.52816 0,-3.26466 -1.13175,-5.52816 -1.08822,-2.30703 -3.04701,-3.52583 -1.91527,-1.21881 -4.43994,-1.21881 -2.48114,0 -4.70111,1.17528 -2.21997,1.17528 -3.56936,3.4823 -1.3494,2.2635 -1.3494,5.61522 z m 5.83286,0 q 0,-1.82821 0.73999,-3.04702 0.73999,-1.26233 2.00233,-1.91527 1.26233,-0.65293 2.69878,-0.65293 0.95764,0 1.87174,0.39176 0.91411,0.34823 1.6541,1.04469 0.78351,0.69646 1.2188,1.74115 0.43529,1.0447 0.43529,2.43762 0,1.82821 -0.78352,3.09054 -0.73999,1.21881 -1.95879,1.87174 -1.17528,0.6094 -2.43762,0.6094 -1.43645,0 -2.69878,-0.65293 -1.26234,-0.65293 -2.00233,-1.87174 -0.73999,-1.26233 -0.73999,-3.04701 z"
       style="font-weight:600;font-size:43.5288px;font-family:Jost-SemiBold, Jost;fill:#1d6338;fill-rule:nonzero;stroke-width:0.981396"
       id="path1042" /><path
       d="m 761.93661,277.23082 q 0,1.3494 1.00116,2.2635 1.00117,0.9141 2.39409,0.9141 1.39292,0 2.35055,-0.9141 1.00117,-0.9141 1.00117,-2.2635 0,-1.39292 -1.00117,-2.2635 -0.95763,-0.9141 -2.35055,-0.9141 -1.39292,0 -2.39409,0.9141 -1.00116,0.87058 -1.00116,2.2635 z m 0.60941,7.74813 v 20.02325 h 5.48462 v -20.02325 z"
       style="font-weight:600;font-size:43.5288px;font-family:Jost-SemiBold, Jost;fill:#1d6338;fill-rule:nonzero;stroke-width:0.981396"
       id="path1044" /><path
       d="m 775.01634,298.08112 -2.74232,3.52583 q 1.13175,1.08822 2.52467,2.04585 1.43645,0.91411 3.17761,1.47998 1.78468,0.56588 3.91759,0.56588 3.43877,0 5.39757,-1.6541 1.9588,-1.69762 1.9588,-4.70111 0,-1.82821 -0.82705,-2.95996 -0.82705,-1.13174 -2.21997,-1.87173 -1.34939,-0.78352 -2.95996,-1.39293 -1.30586,-0.56587 -2.35055,-0.95763 -1.00117,-0.39176 -1.56704,-0.87058 -0.52235,-0.52234 -0.52235,-1.17527 0,-0.73999 0.52235,-1.08822 0.56587,-0.39176 1.52351,-0.39176 1.43645,0 2.91643,0.73999 1.5235,0.73999 2.61172,1.91526 l 2.48115,-3.4823 q -0.95764,-0.95763 -2.21997,-1.65409 -1.26234,-0.73999 -2.74232,-1.17528 -1.47998,-0.43529 -3.1776,-0.43529 -2.00232,0 -3.65642,0.65293 -1.61056,0.60941 -2.5682,1.87174 -0.95763,1.21881 -0.95763,3.00349 0,1.87174 0.82705,3.09054 0.87057,1.17528 2.17644,1.91527 1.30586,0.69646 2.69878,1.21881 1.47998,0.47881 2.43761,0.9141 0.95764,0.43529 1.43645,1.00116 0.52235,0.52235 0.52235,1.30587 0,0.87057 -0.6094,1.39292 -0.60941,0.47882 -1.74116,0.47882 -0.87057,0 -1.87173,-0.34823 -0.95764,-0.34823 -2.04586,-1.04469 -1.08822,-0.73999 -2.35055,-1.91527 z"
       style="font-weight:600;font-size:43.5288px;font-family:Jost-SemiBold, Jost;fill:#1d6338;fill-rule:nonzero;stroke-width:0.981396"
       id="path1046" /></g><path
     d="m 40.137,43.836501 c -3.636,2.961 -8.129,4.908 -13.046,5.409 v -10.692 c 2.009,-0.365 3.871,-1.156 5.487,-2.276 z m -31.15,0 7.558,-7.559 c 1.617,1.12 3.478,1.911 5.487,2.276 v 10.692 c -4.918,-0.501 -9.41,-2.449 -13.045,-5.409 z M 0,27.213501 h 10.693 c 0.364,2.01 1.155,3.871 2.276,5.487 l -7.559,7.559 c -2.961,-3.635 -4.908,-8.128 -5.41,-13.046 z m 49.123,0 c -0.502,4.918 -2.449,9.411 -5.41,13.046 l -7.558,-7.559 c 1.12,-1.616 1.911,-3.477 2.276,-5.487 z M 22.032,0.12950109 c 1.681,-0.172 3.377,-0.173 5.059,-0.001 v -0.005 c 2.229,0.227 4.371,0.752 6.384,1.53200001 2.214,0.855 4.332,2.043 6.277,3.564 l -0.004,0.004 c 5.158,4.031 8.675,10.0679999 9.375,16.9319999 H 38.431 c -0.877,-4.831 -4.22,-8.808 -8.675,-10.577 -3.469,-1.372 -7.368,-1.31 -10.79,0.167 -4.254,1.844 -7.423,5.725 -8.273,10.41 H 0 C 0.665,15.638501 3.868,9.8685011 8.604,5.8505011 l -0.004,-0.004 c 1.853,-1.573 3.887,-2.83 6.03,-3.769 2.306,-1.016 4.794,-1.68800001 7.402,-1.95400001 z"
     style="fill:#1d6338"
     id="path844" /></svg>
